<?xml version="1.0" standalone="no"?>
<!DOCTYPE svg PUBLIC "-//W3C//DTD SVG 20010904//EN"
 "http://www.w3.org/TR/2001/REC-SVG-20010904/DTD/svg10.dtd">
<svg version="1.0" xmlns="http://www.w3.org/2000/svg"
 width="479.000000pt" height="479.000000pt" viewBox="0 0 479.000000 479.000000"
 preserveAspectRatio="xMidYMid meet">
<metadata>
Created by potrace 1.11, written by Peter Selinger 2001-2013
</metadata>
<g transform="translate(0.000000,479.000000) scale(0.100000,-0.100000)"
fill="#000000" stroke="none">
<path d="M850 4780 c-153 -18 -318 -80 -447 -168 -169 -115 -302 -305 -364
-522 -38 -132 -40 -226 -37 -1770 4 -1396 5 -1500 22 -1570 96 -402 401 -684
800 -739 108 -15 3034 -15 3142 0 263 36 511 187 655 396 47 68 114 218 140
313 l24 85 3 1535 c2 1071 0 1560 -8 1619 -53 402 -336 711 -740 807 -70 17
-172 18 -1600 20 -839 1 -1554 -2 -1590 -6z m3202 -271 c120 -41 205 -94 290
-179 62 -63 85 -96 121 -171 89 -185 81 -33 85 -1709 2 -1051 0 -1510 -8
-1570 -24 -179 -97 -329 -216 -440 -113 -106 -247 -168 -414 -190 -60 -8 -523
-10 -1570 -8 -1676 4 -1524 -4 -1709 85 -164 78 -285 220 -350 411 l-26 77 -3
1547 c-2 1316 0 1558 12 1617 56 270 253 474 521 540 78 19 117 20 1635 18
l1555 -2 77 -26z"/>
<path d="M1095 4274 c-268 -58 -468 -238 -558 -504 l-32 -95 0 -1255 c0 -1409
-6 -1298 75 -1465 90 -187 250 -321 460 -387 l75 -23 1260 0 1260 0 75 23
c134 42 226 97 321 192 71 71 93 101 132 180 88 179 82 63 82 1475 0 1402 5
1298 -74 1460 -93 188 -253 323 -461 387 l-75 23 -1235 2 c-1068 1 -1244 0
-1305 -13z m2524 -249 c185 -44 322 -181 366 -367 22 -94 22 -2392 0 -2486
-44 -187 -180 -323 -367 -367 -95 -22 -2406 -22 -2491 0 -184 48 -319 184
-362 366 -22 96 -22 2392 0 2488 42 178 185 322 361 365 91 22 2400 23 2493 1z"/>
<path d="M1633 3291 c-12 -6 -23 -22 -26 -38 -3 -15 -4 -412 -4 -881 2 -746 4
-854 17 -863 9 -6 195 -8 505 -6 469 3 494 4 575 26 283 74 468 261 530 537
41 182 37 495 -10 682 -53 210 -183 379 -352 461 -158 77 -204 82 -743 87
-281 2 -479 0 -492 -5z m822 -427 c152 -37 213 -131 237 -368 20 -191 -13
-397 -76 -479 -53 -70 -164 -107 -317 -107 -68 0 -81 3 -106 24 l-28 24 -3
442 c-3 392 -1 444 13 466 16 24 18 25 118 19 56 -4 129 -13 162 -21z"/>
</g>
</svg>
